<svg height="512pt" viewBox="0 -48 512.18285 512" width="512pt" xmlns="http://www.w3.org/2000/svg"><path d="m503.648438 226.738281c0 1.453125-.085938 2.90625-.257813 4.351563-.867187 5.738281-5.800781 9.980468-11.605469 9.984375-.511718.011719-1.023437-.015625-1.535156-.085938l-16.554688-2.304687-13.824218-1.878906c.683594 1.195312 1.28125 2.476562 1.878906 3.671874 10.046875 17.710938 15.996094 37.453126 17.40625 57.769532.171875 5.894531-.964844 11.75-3.328125 17.152344-1.941406 4.089843-6.050781 6.707031-10.578125 6.742187-1.6875 0-3.347656-.378906-4.867188-1.109375l-10.152343-4.695312-41.730469-19.371094-.9375.683594c3.085938 4.019531 5.292969 8.644531 6.484375 13.566406 2.394531 10.765625 2.714844 21.886718.941406 32.769531-.429687 3.15625-2.902343 20.992187-5.890625 36.949219-2.558594 13.996094-5.546875 26.539062-7.847656 26.539062h-81.582031c-2.800781.007813-5.429688-1.359375-7.027344-3.65625-1.601563-2.300781-1.972656-5.238281-.992187-7.863281l2.046874-5.546875h-31.914062c-4.710938 0-8.53125-3.820312-8.53125-8.535156v-16.980469c-28.460938-.21875-56.890625-1.953125-85.164062-5.203125l-.171876 1.621094v20.5625c0 4.714844-3.820312 8.535156-8.53125 8.535156h-36.097656l-4.4375 11.605469c-1.300781 3.292969-4.480468 5.457031-8.019531 5.460937h-58.882813c-3.449218-.015625-6.550781-2.105468-7.859374-5.300781-1.308594-3.195313-.5625-6.859375 1.886718-9.292969l8.191406-8.191406c1.777344-1.808594 2.679688-4.296875 2.476563-6.824219l-4.863281-53.675781c-5.359375-2.804688-10.921875-5.203125-16.640625-7.167969-6.011719-2.832031-11.800781-6.113281-17.324219-9.8125-8.527344-5.714843-15.929688-12.945312-21.84375-21.335937-5.515625-6.304688-8.171875-14.617188-7.339844-22.953125 0-.171875.085938-.339844.085938-.511719.28125-1.648438 1.199218-3.121094 2.558594-4.097656 6.488281-4.691406 21.164062 7.851562 23.042968 4.097656 0 0 39.765625-79.871094 40.019532-80.46875-3.8125-17.207031-5.785157-34.769531-5.886719-52.394531-1.136719-18.691407 2.847656-37.335938 11.519531-53.929688 1.796875-2.722656 3.984375-5.164062 6.484375-7.253906 1.773437-1.46875 4.011719-2.253906 6.316406-2.21875 3.023438-.003906 5.886719 1.378906 7.765625 3.753906l15.273438 19.027344 21.675781 26.96875c2.730469-37.71875 13.738281-75.351563 30.292969-92.589844 2.996094-3.300781 6.621094-5.972656 10.664062-7.847656 1.261719-.570313 2.628906-.859375 4.011719-.855469 4.015625-.035156 7.660156 2.355469 9.214844 6.058594l12.972656 29.695312 8.960937 20.480469c19.113282-26.964843 43.09375-50.089843 63.742188-58.625 4.949219-2.207031 10.285156-3.421875 15.703125-3.582031.9375 0 1.960937.085938 2.898437.171875 5.078126.589844 8.921876 4.871094 8.960938 9.984375 0 .425781-.085938.765625-.085938 1.109375l-4.519531 40.957031-1.964843 17.835938c25.480468-19.96875 55.054687-34.074219 86.613281-41.300782 4.527343-.890624 9.125-1.347656 13.738281-1.367187 6.476562-.238281 12.90625 1.171875 18.6875 4.097656 3.226562 1.742188 5.230469 5.121094 5.207031 8.789063-.011719 1.703125-.449219 3.375-1.28125 4.863281l-21.078125 38.144531c43.179688 1.023438 85.421875 12.542969 96.257813 33.109375 2.496093 4.9375.648437 10.960938-4.179688 13.652344l-32.085937 16.980469c25.429687 24.238281 43.433594 50.691406 43.433594 71.085937zm0 0" fill="#7facfa"/><path d="m478.558594 226.738281c0 1.453125-.082032 2.90625-.253906 4.351563-.949219 5.695312-5.832032 9.894531-11.605469 9.984375-.511719.011719-1.027344-.015625-1.535157-.085938l-3.414062-.511719-26.964844-3.671874c11.066406 18.726562 17.664063 39.75 19.285156 61.441406.167969 5.894531-.96875 11.75-3.328124 17.152344-.171876.339843-.339844.597656-.511719.9375l-41.730469-19.371094-.9375.683594c3.085938 4.019531 5.292969 8.644531 6.484375 13.566406l-30.632813-14.25-.9375.683594c9.8125 12.460937 9.300782 31.316406 7.421876 46.335937-.425782 3.15625-2.902344 20.992187-5.886719 36.949219-2.5625 13.996094-5.546875 26.539062-7.851563 26.539062h-56.492187c-2.800781.007813-5.429688-1.359375-7.027344-3.65625-1.601563-2.300781-1.972656-5.238281-.992187-7.863281l2.046874-5.546875h-31.914062c-4.710938 0-8.53125-3.820312-8.53125-8.535156v-16.980469c-28.460938-.21875-56.890625-1.953125-85.164062-5.203125l-.171876 1.621094v.765625c-8.445312-.765625-16.808593-1.535157-24.917968-2.386719l-.167969 1.621094v20.5625c0 4.714844-3.820313 8.535156-8.535156 8.535156h-36.09375l-4.4375 11.605469c-1.304688 3.292969-4.480469 5.457031-8.023438 5.460937h-33.792969c-3.449218-.015625-6.550781-2.105468-7.859374-5.300781-1.308594-3.195313-.5625-6.859375 1.886718-9.292969l8.191406-8.191406c1.777344-1.808594 2.679688-4.296875 2.476563-6.824219l-4.863281-53.675781c-5.359375-2.804688-10.921875-5.203125-16.640625-7.167969-6.011719-2.832031-11.800781-6.113281-17.324219-9.8125-8.527344-5.714843-15.929688-12.945312-21.84375-21.335937-5.515625-6.304688-8.171875-14.617188-7.339844-22.953125.253906-.09375.464844-.277344.597656-.511719l2.046876-4.097656c6.488281-4.691406 21.164062 7.851562 23.042968 4.097656 0 0 39.765625-79.871094 40.019532-80.46875-3.8125-17.207031-5.785157-34.769531-5.886719-52.394531-1.136719-18.691407 2.847656-37.335938 11.519531-53.929688l32.425781 40.277344c.652344-9.046875 1.792969-18.046875 3.414063-26.96875l21.675781 26.96875c2.730469-37.71875 13.738281-75.351563 30.292969-92.589844l20.734375 47.53125c5.027343-7.09375 10.410156-13.929687 16.128906-20.480469l8.960937 20.480469c19.113282-26.964843 43.09375-50.089843 63.742188-58.625 1.585938 1.824219 2.460938 4.15625 2.476562 6.574219 0 .425781-.085937.765625-.085937 1.109375l-6.484375 58.792969c8.640625-6.492188 17.675781-12.449219 27.050781-17.835938l-1.964843 17.835938c25.480468-19.96875 55.054687-34.074219 86.613281-41.300782 2.558593.574219 5.027343 1.492188 7.339843 2.730469 3.226563 1.742188 5.226563 5.121094 5.203126 8.789063-.007813 1.703125-.449219 3.375-1.277344 4.863281l-21.078125 38.144531c8.300781.164063 16.589843.761719 24.832031 1.792969 33.621094 4.007813 62.71875 14.761719 71.421875 31.316406 2.496094 4.9375.652344 10.960938-4.179687 13.652344l-32.085938 16.980469c25.429688 24.238281 43.433594 50.691406 43.433594 71.085937zm0 0" fill="#a4c2f7"/><path d="m414.988281 343.984375c-.429687 3.15625-2.902343 20.992187-5.890625 36.949219-2.558594 13.996094-5.546875 26.539062-7.847656 26.539062h-81.582031c-2.800781.007813-5.429688-1.359375-7.027344-3.65625-1.601563-2.300781-1.972656-5.238281-.992187-7.863281l2.046874-5.546875 5.890626-15.957031c1.515624-4.054688-.246094-8.605469-4.097657-10.582031-11.09375-14.847657-34.472656-33.195313-81.152343-33.195313-4.609376 0-8.960938.085937-13.054688.34375-55.894531 2.816406-65.453125 23.890625-67.15625 31.230469 0 .085937-.085938.085937-.085938.171875l-10.753906 27.988281-4.4375 11.605469c-1.300781 3.292969-4.480468 5.457031-8.019531 5.460937h-58.882813c-3.449218-.015625-6.550781-2.105468-7.859374-5.300781-1.308594-3.195313-.5625-6.859375 1.886718-9.292969l8.191406-8.191406c1.777344-1.808594 2.679688-4.296875 2.476563-6.824219l-4.863281-53.675781c-5.359375-2.804688-10.921875-5.203125-16.640625-7.167969-6.011719-2.832031-11.800781-6.113281-17.324219-9.8125-8.527344-5.714843-15.929688-12.945312-21.84375-21.335937-5.515625-6.304688-8.171875-14.617188-7.339844-22.953125 0-.171875.085938-.339844.085938-.511719.34375-2.5 2.222656-4.515625 4.695312-5.035156 7.082032-1.449219 19.199219 8.449218 20.90625 5.035156l36.777344-73.898438c1.960938-4.011718 3.15625-6.484374 3.242188-6.570312 2.558593-5.207031 20.054687 6.824219 23.210937 8.277344 9.042969 4.28125 18.589844 7.40625 28.417969 9.300781.066406.066406.160156.097656.253906.085937 8.105469 1.535157 18.945312 3.496094 26.199219-1.792968 1.390625-1.34375 2.289062-3.117188 2.558593-5.035156 1.96875-9.773438 8.601563-17.964844 17.75-21.929688 2.261719-1.007812 4.640626-1.722656 7.082032-2.132812 9.222656-1.304688 18.546875 1.574218 25.429687 7.851562 13.054688 12.714844-3.074219 23.976562-8.105469 35.242188-1.027343 2.046874 14.929688 13.394531 16.894532 14.761718 6.011718 4.144532 12.378906 7.742188 19.027344 10.75 29.1875 13.398438 61.953124 16.472656 93.015624 23.382813 26.941407 5.027343 52.558594 15.542969 75.261719 30.890625 2.359375 1.707031 4.460938 3.75 6.230469 6.058594 9.8125 12.460937 9.300781 31.316406 7.425781 46.335937zm0 0" fill="#a4c2f7"/><path d="m391.605469 343.984375c-.425781 3.15625-2.902344 20.992187-5.886719 36.949219-2.5625 13.996094-5.546875 26.539062-7.851562 26.539062h-58.199219c-2.800781.007813-5.429688-1.359375-7.027344-3.65625-1.601563-2.300781-1.972656-5.238281-.992187-7.863281l2.046874-5.546875 5.890626-15.957031c1.515624-4.054688-.246094-8.605469-4.097657-10.582031-11.09375-14.847657-34.472656-33.195313-81.152343-33.195313-4.609376 0-8.960938.085937-13.054688.34375-3.328125-.257813 12.882812-.34375 9.300781-.34375-67.5 0-78.421875 23.722656-80.214843 31.574219 0 .085937-.085938.085937-.085938.171875l-10.75 27.988281-4.4375 11.605469c-1.300781 3.292969-4.480469 5.457031-8.019531 5.460937h-55.128907c-3.449218-.015625-6.550781-2.105468-7.859374-5.300781-1.308594-3.195313-.5625-6.859375 1.886718-9.292969l8.191406-8.191406c1.777344-1.808594 2.679688-4.296875 2.476563-6.824219l-4.863281-53.675781c-5.359375-2.804688-10.921875-5.203125-16.640625-7.167969-6.011719-2.832031-11.800781-6.113281-17.324219-9.8125-8.527344-5.714843-15.929688-12.945312-21.84375-21.335937-5.515625-6.304688-8.171875-14.617188-7.339844-22.953125 1.109375.339843 1.964844.171875 2.304688-.511719 0 0 .9375-1.878906 2.476562-5.035156 7.082032-1.449219 19.199219 8.449218 20.90625 5.035156l36.777344-73.898438c1.449219.769532 2.476562-3.15625 3.070312-2.902343 8.972657 5.78125 18.597657 10.480469 28.671876 13.996093 7.558593 2.191407 15.585937 2.160157 23.128906-.085937.066406.066406.160156.097656.253906.085937 8.105469 1.535157 18.945312 3.496094 26.199219-1.792968 1.390625-1.34375 2.289062-3.117188 2.558593-5.035156 1.96875-9.773438 8.601563-17.964844 17.75-21.929688 3.414063 1.28125 27.5625 3.242188 30.035157 5.71875 13.058593 12.714844-3.070313 23.976562-8.105469 35.242188-1.023438 2.046874 14.933594 13.394531 16.894531 14.761718 6.011719 4.144532 12.378907 7.742188 19.03125 10.75 22.886719 10.96875 47.136719 18.832032 72.105469 23.382813 26.941406 5.027343 52.5625 15.542969 75.265625 30.890625 2.359375 1.707031 4.457031 3.75 6.230469 6.058594 9.8125 12.460937 9.300781 31.316406 7.421875 46.335937zm0 0" fill="#e3e7f2"/><path d="m315.488281 363.867188c-1.421875-.722657-3.023437-1.019532-4.609375-.851563-12.542968 1.277344-25.085937 1.789063-37.628906 1.875-28.460938-.21875-56.890625-1.953125-85.164062-5.203125-8.617188-.941406-17.066407-1.878906-25.257813-2.730469-3.773437-.441406-7.359375 1.738281-8.703125 5.289063 1.789062-7.851563 12.710938-31.574219 80.210938-31.574219 46.679687 0 70.058593 18.347656 81.152343 33.195313zm0 0" fill="#a4c2f7"/><path d="m188.085938 359.6875-.171876 1.621094v20.5625c0 4.714844-3.820312 8.535156-8.53125 8.535156h-36.097656l10.753906-27.988281c0-.085938.085938-.085938.085938-.171875 1.34375-3.550782 4.929688-5.730469 8.703125-5.289063 8.191406.851563 16.640625 1.789063 25.257813 2.730469zm0 0" fill="#7facfa"/><path d="m319.585938 374.449219-5.890626 15.957031h-31.914062c-4.710938 0-8.53125-3.820312-8.53125-8.535156v-16.980469c12.542969-.085937 25.085938-.597656 37.628906-1.875 1.585938-.167969 3.1875.128906 4.609375.851563 3.851563 1.976562 5.613281 6.527343 4.097657 10.582031zm0 0" fill="#7facfa"/><path d="m119.648438 245.339844c0 4.710937-3.820313 8.53125-8.535157 8.53125-4.710937 0-8.53125-3.820313-8.53125-8.53125 0-4.714844 3.820313-8.535156 8.53125-8.535156 4.714844 0 8.535157 3.820312 8.535157 8.535156zm0 0" fill="#428dff"/><path d="m182.453125 14.597656c-1.382813-.003906-2.75.285156-4.011719.855469-4.042968 1.875-7.667968 4.546875-10.664062 7.847656-12.484375 12.972657-21.804688 37.597657-26.796875 65.078125l.4375.542969 21.671875 26.96875c2.714844-37.4375 13.585937-74.738281 29.9375-92.160156l-1.359375-3.074219c-1.554688-3.703125-5.199219-6.09375-9.214844-6.058594zm0 0" fill="#fff"/><path d="m97.359375 187.152344c1.542969-3.160156 2.5-5.121094 2.558594-5.214844-3.804688-17.207031-5.773438-34.773438-5.871094-52.394531-1.097656-18.5625 2.816406-37.078125 11.332031-53.605469l-4.84375-6.042969c-1.878906-2.375-4.742187-3.757812-7.765625-3.753906-2.304687-.035156-4.542969.75-6.316406 2.21875-2.5 2.089844-4.6875 4.53125-6.484375 7.253906-8.671875 16.59375-12.65625 35.238281-11.519531 53.929688.101562 17.625 2.074219 35.1875 5.886719 52.394531-.078126.074219-1.03125 2.054688-2.558594 5.214844-2.289063 4.605468-5.878906 11.816406-10.027344 20.164062-9.523438 19.128906-21.589844 43.375-25.820312 51.890625.261718-.324219.566406-.609375.902343-.855469l.042969-.042968c.625-.449219 1.335938-.761719 2.089844-.921875h.453125c.328125-.015625.65625-.015625.980469 0 .71875-.019531 1.441406.027343 2.152343.136719.417969.078124.851563.179687 1.261719.292968.699219.179688 1.390625.355469 2.109375.605469.542969.1875 1.082031.382813 1.636719.605469.554687.222656 1.101562.433594 1.648437.671875 2.472657 1.058593 4.792969 2.160156 6.679688 2.84375l.589843.214843c.535157.171876 1.09375.277344 1.65625.3125.171876.039063.34375.0625.519532.078126.53125.019531 1.023437-.269532 1.261718-.742188 0 0 15.683594-31.503906 27.417969-55.089844 4.15625-8.347656 7.742188-15.558594 10.027344-20.164062zm0 0" fill="#fff"/><path d="m71.777344 324.1875 4.863281 53.675781c.203125 2.527344-.699219 5.015625-2.476563 6.824219l-8.191406 8.191406c-2.449218 2.433594-3.195312 6.097656-1.886718 9.292969 1.308593 3.195313 4.410156 5.285156 7.859374 5.300781h25.601563c-3.449219-.015625-6.554687-2.105468-7.859375-5.300781-1.308594-3.195313-.5625-6.859375 1.886719-9.292969l8.191406-8.191406c1.777344-1.808594 2.679687-4.296875 2.476563-6.824219l-4.867188-53.675781c-5.355469-2.804688-10.917969-5.203125-16.636719-7.167969-6.011719-2.832031-11.804687-6.113281-17.324219-9.8125-8.527343-5.714843-15.933593-12.945312-21.84375-21.335937-5.519531-6.304688-8.175781-14.617188-7.339843-22.953125 0-.171875.085937-.339844.085937-.511719-.25.4375-.71875.703125-1.222656.691406-.175781-.015625-.347656-.039062-.519531-.078125-.5625-.035156-1.117188-.140625-1.65625-.316406l-.589844-.210937c-1.882813-.683594-4.203125-1.785157-6.679687-2.84375-.546876-.238282-1.09375-.449219-1.648438-.671876-.554688-.222656-1.089844-.417968-1.636719-.605468-.71875-.25-1.40625-.429688-2.109375-.605469-.417968-.113281-.851562-.214844-1.261718-.292969-.710938-.109375-1.429688-.15625-2.148438-.136718-.328125-.015626-.65625-.015626-.984375 0-.144531 0-.3125 0-.449219 0-.753906.160156-1.46875.472656-2.09375.921874l-.058594.0625c-.4375.328126-.824218.722657-1.144531 1.167969-.164062.203125-.3125.417969-.449219.640625-.417968.710938-.734374 1.480469-.949218 2.277344 0 .171875-.085938.339844-.085938.511719-.832031 8.335937 1.824219 16.648437 7.339844 22.953125 5.914062 8.390625 13.316406 15.621094 21.84375 21.335937 5.523438 3.699219 11.3125 6.980469 17.324219 9.8125 5.71875 1.964844 11.28125 4.363281 16.640625 7.167969zm0 0" fill="#fff"/><g fill="#428dff"><path d="m496.402344 146.148438c5.992187-3.300782 9.71875-9.597657 9.722656-16.4375-.003906-3.011719-.71875-5.984376-2.09375-8.667969-12.328125-23.332031-52.214844-34.183594-89.726562-36.984375l14.445312-26.128906c1.542969-2.757813 2.359375-5.867188 2.363281-9.027344.027344-6.753906-3.644531-12.976563-9.574219-16.214844-7.042968-3.664062-14.914062-5.457031-22.851562-5.203125-23.890625 0-58.402344 13.039063-89.804688 33.398437l4.472657-40.507812c0-.324219.101562-1.269531.101562-1.59375-.046875-9.53125-7.261719-17.496094-16.742187-18.484375-1.1875-.113281-2.472656-.2070312-3.652344-.2070312-25.601562 0-55.328125 26.0781252-77.480469 53.9335942l-16.035156-36.695313c-2.90625-6.84375-9.632813-11.28125-17.066406-11.261719-2.5625-.011718-5.09375.523438-7.433594 1.570313-24.457031 10.714843-38.167969 49.96875-43.757813 86.925781l-24.066406-29.96875c-3.488281-4.425781-8.816406-7.003906-14.453125-6.988281-4.246093-.046875-8.371093 1.398437-11.65625 4.089843-18.441406 14.796876-21.199219 48.816407-21.199219 67.847657.113282 17.1875 1.953126 34.320312 5.496094 51.140625-21.65625 43.03125-31.503906 62.828125-35.933594 72.214844-6.320312-3.980469-14.066406-4.992188-21.195312-2.761719-4.035156 2.003906-6.921875 5.75-7.835938 10.160156-1.679687 10.894531 1.433594 21.980469 8.535157 30.40625 6.515625 9.269531 14.671875 17.265625 24.070312 23.59375 5.875 3.90625 12.023438 7.382813 18.398438 10.402344.589843.289062 2.40625 1.007812 4.726562 1.886719 1.75.664062 5.019531 1.917968 7.511719 2.941406l4.4375 49.136718-8.210938 8.210938c-4.878906 4.878906-6.339843 12.21875-3.695312 18.59375 2.640625 6.378906 8.859375 10.535156 15.761719 10.539062h58.878906c7.058594-.03125 13.378906-4.378906 15.933594-10.957031l2.320312-6.113281h30.269531c9.425782 0 17.066407-7.640625 17.066407-17.066406v-12.796875c21.929687 2.191406 44.910156 3.992187 68.265625 4.265625v8.53125c0 9.425781 7.640625 17.066406 17.066406 17.066406h20.914062c-.042968 3.476562.980469 6.878906 2.9375 9.746094 3.191407 4.589844 8.425782 7.324218 14.011719 7.324218h81.605469c8.703125 0 11.5625-7.953124 16.28125-33.488281 2.953125-15.964843 5.425781-33.917969 5.886719-37.542969 1.617187-10.542968 1.5625-21.273437-.160157-31.796874l33.457032 15.566406c2.664062 1.269531 5.582031 1.929687 8.535156 1.925781 7.828125-.027344 14.949219-4.546875 18.300781-11.621094 2.898438-6.546875 4.3125-13.648437 4.140625-20.804687-.882812-17.640625-5.324218-34.917969-13.054687-50.800782l14.292969 1.972657c11.121093 1.5625 21.402343-6.183594 22.96875-17.304688.203124-1.785156.296874-3.582031.285156-5.375 0-24.6875-20.910156-51.433593-37.746094-68.960937zm-320.570313 203.597656c10.09375-5.566406 27.683594-10.539063 58.503907-10.539063 21.472656-1.140625 42.742187 4.628907 60.699218 16.460938-39.828125 1.265625-79.695312-.714844-119.203125-5.921875zm3.550781 32.125h-23.75l6.28125-16.441406 10.460938 1.117187 7.007812.742187zm102.398438-8.632813c9.933594-.230469 19.882812-.71875 29.816406-1.707031l-3.832031 10.339844h-25.984375zm124.699219-30.371093c-.4375 3.488281-2.851563 20.976562-5.734375 36.546874-1.105469 6.582032-2.570313 13.101563-4.378906 19.523438h-76.722657l7.953125-21.484375c2.777344-7.230469.230469-15.421875-6.152344-19.804687-12.757812-16.460938-38.09375-35.507813-87.109374-35.507813-69.582032 0-84.863282 24.890625-88.183594 36.949219 0 .085937-.085938.160156-.117188.246094l-15.183594 39.601562h-58.878906l8.210938-8.207031c3.578125-3.578125 5.382812-8.5625 4.929687-13.601563l-4.847656-53.675781c-.535156-6.152344-4.589844-7.679687-18.03125-12.800781-1.609375-.613282-2.925781-1.109375-3.410156-1.304688-5.648438-2.664062-11.09375-5.734375-16.300781-9.179687-7.65625-5.152344-14.308594-11.660157-19.625-19.203125-3.472657-4.210938-5.613282-9.363282-6.152344-14.796875 2 .703125 3.96875 1.503906 5.886718 2.40625 4.378907 1.972656 13.003907 5.753906 17.921876-.367188.402343-.464843.753906-.96875 1.046874-1.507812.101563-.179688.230469-.28125.332032-.480469l37.796875-75.945312c3.503906 1.652343 6.921875 3.484374 10.238281 5.488281 1.792969 1.058593 3.199219 1.859375 3.925781 2.199219 9.785157 4.609374 20.105469 7.984374 30.71875 10.054687 8.988281 1.707031 22.597657 4.265625 32.871094-3.269531 3.167969-2.652344 5.285156-6.347656 5.972656-10.417969 1.882813-8.8125 8.890625-15.625 17.75-17.253906 6.53125-.847657 13.109375 1.171875 18.039063 5.535156 3.628906 3.550781 3.722656 5.121094-3.410156 15.140625-2.5 3.269531-4.675782 6.777344-6.496094 10.46875-3.113282 6.878906 1.144531 12.324219 19.804687 25.308594 6.449219 4.425781 13.269531 8.28125 20.386719 11.523437 22.171875 9.121094 45.390625 15.453125 69.121094 18.855469 8.585937 1.597656 17.152344 3.175781 25.601562 5.054688 25.800782 4.734374 50.34375 14.765624 72.078125 29.457031l.085938.09375.207031.152343c9.605469 7.261719 12.765625 21.273438 9.855469 44.203126zm88.632812-116.128907c.003907 1.039063-.054687 2.078125-.167969 3.113281-.3125 1.667969-1.835937 2.832032-3.523437 2.6875l-30.371094-4.191406c-3.179687-.441406-6.335937.9375-8.171875 3.570313-1.835937 2.628906-2.042968 6.066406-.53125 8.898437 10.390625 17.5 16.644532 37.144532 18.277344 57.429688.144531 4.640625-.730469 9.257812-2.5625 13.523437-.300781.789063-.929688 1.40625-1.71875 1.695313-.792969.292968-1.667969.226562-2.410156-.175782l-51.199219-23.753906c-1.910156-1.519531-3.898437-3.023437-5.929687-4.480468-.164063-.121094-.292969-.265626-.453126-.386719-23.640624-16.109375-50.378906-27.125-78.507812-32.339844-8.617188-1.917969-17.390625-3.550781-26.179688-5.179687-22.332031-3.183594-44.1875-9.089844-65.082031-17.585938-6.210937-2.8125-12.15625-6.167969-17.777343-10.027344-3.804688-2.644531-8.386719-6.117187-11.40625-8.652344.699218-1.035156 1.464843-2.101562 2.242187-3.191406 5.691406-7.972656 16.273437-22.792968 1.476563-37.257812-10.292969-9.792969-25.128907-13.15625-38.640626-8.761719-13.511718 4.398437-23.523437 15.847656-26.085937 29.820313-6.132813 1.648437-12.601563 1.542968-18.679687-.304688-9.183594-1.796875-18.113282-4.726562-26.578126-8.722656-.53125-.253906-1.402343-.792969-2.519531-1.457032-5.378906-3.511718-11.226562-6.257812-17.363281-8.152343-2.75-14.273438-4.179688-28.773438-4.269531-43.3125 0-26.710938 5.53125-47.097657 14.816406-54.527344.066406-.0625.902344-.28125.972656-.34375.4375.003906.847657.210937 1.109375.5625l36.957032 46.003906c2.199218 2.730469 5.839843 3.835938 9.1875 2.792969 3.34375-1.042969 5.710937-4.023438 5.96875-7.519531 3.351562-45.679688 18.773437-85.769531 36.460937-93.378907.621094-.023437 1.183594.355469 1.398437.9375l21.933594 50.175782c1.230469 2.816406 3.882813 4.753906 6.9375 5.070312 3.058594.3125 6.050782-1.039062 7.832032-3.542968 24.535156-34.515626 54.304687-58.617188 72.492187-58.617188.691406 0 1.449219.078125 1.910156.113281.660157.074219 1.214844.523438 1.425781 1.152344 0 .144531 0 .390625-.050781.640625l-6.476562 58.691406c-.382813 3.394532 1.296875 6.691406 4.269531 8.375 2.972656 1.6875 6.664062 1.4375 9.382812-.636718 31.847657-24.105469 70.988282-40.960938 95.199219-40.960938 5.0625-.226562 10.101563.832031 14.640625 3.082031.648438.351563.71875 1.007813.503906 2.003907l-21.078124 38.152343c-1.441407 2.613281-1.414063 5.785157.070312 8.375 1.484375 2.585938 4.210938 4.207031 7.191406 4.28125 44.042969 1.042969 80.597656 12.800781 88.832032 28.382813.140624.261718.210937.554687.207031.851562.019531.574219-.265625 1.113282-.75 1.417969l-32.085938 16.980469c-2.425781 1.285156-4.085937 3.660156-4.457031 6.378906-.375 2.71875.582031 5.453125 2.570312 7.34375 25.515626 24.398438 40.761719 48.65625 40.761719 64.957031zm0 0"/><path d="m264.714844 108.804688c-4.710938 0-8.53125 3.820312-8.53125 8.535156v34.132812c0 4.714844 3.820312 8.535156 8.53125 8.535156 4.714844 0 8.535156-3.820312 8.535156-8.535156v-34.132812c0-4.714844-3.820312-8.535156-8.535156-8.535156zm0 0"/><path d="m382.960938 138.542969c-2.425782-4.035157-7.667969-5.34375-11.707032-2.917969l-42.667968 25.601562c-2.671876 1.542969-4.304688 4.40625-4.269532 7.492188.035156 3.082031 1.734375 5.910156 4.441406 7.386719 2.707032 1.480469 6.003907 1.382812 8.617188-.253907l42.667969-25.597656c4.039062-2.429687 5.34375-7.671875 2.917969-11.710937zm0 0"/><path d="m413.144531 228.964844-59.734375-25.601563c-4.3125-1.777343-9.253906.242188-11.09375 4.527344-1.835937 4.289063.109375 9.257813 4.371094 11.15625l59.730469 25.601563c4.316406 1.777343 9.257812-.238282 11.09375-4.527344 1.839843-4.289063-.105469-9.257813-4.367188-11.15625zm0 0"/></g></svg>